Coordinates
version=1
nRows=21
nColumns=22
inDegrees=yes

Units are S.I. units (second, meters, Newtons, ...)
If the header above contains a line with 'inDegrees', this indicates whether rotational values are in degrees (yes) or radians (no).

endheader
time	pelvis_tilt	pelvis_list	pelvis_rotation	pelvis_tx	pelvis_ty	pelvis_tz	hip_flexion_r	hip_adduction_r	hip_rotation_r	knee_angle_r	ankle_angle_r	subtalar_angle_r	hip_flexion_l	hip_adduction_l	hip_rotation_l	knee_angle_l	ankle_angle_l	subtalar_angle_l	lumbar_extension	lumbar_bending	lumbar_rotation
      2.83000000	      1.76853976	      4.36221222	    -35.30417047	     -0.23582584	      1.05358217	     -0.43309273	     -5.70251917	      0.32980861	     19.60478722	    -33.18466252	      9.05220462	      0.79888588	     18.91149685	      2.18782949	     13.06870111	    -17.64090864	      3.91508177	      5.92412837	     -3.16495235	     -6.28710106	     -0.51098668
      2.84000000	      1.89066655	      4.40457090	    -35.94484098	     -0.22697684	      1.05501585	     -0.42942129	     -4.94903518	      0.23992608	     19.36909142	    -35.18302763	      6.92285233	      2.19888778	     18.37248338	      2.30560983	     12.62040051	    -17.87174535	      4.37215817	      5.57940221	     -3.17931407	     -6.37103481	     -0.50581773
      2.85000000	      2.01838466	      4.46034953	    -36.63069684	     -0.21836758	      1.05640909	     -0.42571456	     -4.05516559	      0.13540345	     19.07333607	    -37.30243273	      4.64647392	      3.61452931	     17.76673188	      2.40450004	     12.05586500	    -17.94812546	      4.84415186	      5.27740500	     -3.20687379	     -6.47314163	     -0.48152867
      2.86000000	      2.15741565	      4.54091443	    -37.33835689	     -0.20997392	      1.05773793	     -0.42201236	     -3.02866736	     -0.00810603	     18.68515424	    -39.51094125	      2.31034231	      5.05983555	     17.09620520	      2.50758629	     11.39662993	    -17.86232841	      5.29496552	      5.01950238	     -3.24600778	     -6.60230304	     -0.48806701
      2.87000000	      2.31886370	      4.65086009	    -38.05997969	     -0.20181136	      1.05897068	     -0.41833326	     -1.88880303	     -0.20543180	     18.21973785	    -41.77692654	      0.02706916	      6.50477322	     16.37626863	      2.63582094	     10.65870391	    -17.65083697	      5.71764788	      4.80488448	     -3.30453622	     -6.77270943	     -0.52276828
      2.88000000	      2.52961482	      4.80904760	    -38.81021528	     -0.19390242	      1.06007575	     -0.41469471	     -0.65186478	     -0.49554014	     17.70953803	    -44.08317272	     -2.03523454	      7.86282570	     15.62235411	      2.82744487	      9.83570120	    -17.35997199	      6.13808967	      4.62475416	     -3.39450283	     -7.02023292	     -0.57713845
      2.89000000	      2.74426343	      4.96841022	    -39.50315732	     -0.18611358	      1.06109981	     -0.41115653	      0.64019297	     -0.82159859	     17.09035298	    -46.33768459	     -3.82423480	      9.23680040	     14.83413300	      3.04423492	      9.07373126	    -16.97197930	      6.48275829	      4.46542578	     -3.50052300	     -7.26145309	     -0.73559147
      2.90000000	      3.01581435	      5.17083049	    -40.19165517	     -0.17846518	      1.06200970	     -0.40768050	      1.96709975	     -1.25530978	     16.43299913	    -48.53795670	     -5.14416083	     10.32719724	     14.02256648	      3.34695561	      8.28831092	    -16.53954297	      6.83351641	      4.32067720	     -3.63265228	     -7.57476173	     -0.94206927
      2.91000000	      3.29178164	      5.36392062	    -40.82346438	     -0.17091686	      1.06285647	     -0.40430748	      3.30051055	     -1.71062104	     15.73626503	    -50.61683651	     -6.01285405	     11.21862396	     13.20239485	      3.67754269	      7.60920603	    -16.07501506	      7.12440165	      4.17225917	     -3.78458176	     -7.87316933	     -1.22650616
      2.92000000	      3.60434148	      5.54044087	    -41.40294347	     -0.16342194	      1.06370638	     -0.40099465	      4.58701405	     -2.21131415	     14.98877397	    -52.53714701	     -6.38937314	     11.61641331	     12.33810460	      4.05169365	      7.03605089	    -15.57635688	      7.34867183	      4.07238479	     -3.98136869	     -8.17702698	     -1.56422479
      2.93000000	      3.88473324	      5.69295611	    -41.92931812	     -0.15600668	      1.06448965	     -0.39773271	      5.85998104	     -2.67941422	     14.25504546	    -54.27871058	     -6.26410560	     11.87014736	     11.50893146	      4.41240701	      6.53516383	    -15.10096373	      7.59713760	      3.91808993	     -4.16650844	     -8.42809354	     -1.95514676
      2.94000000	      4.13696336	      5.80613022	    -42.40196402	     -0.14864987	      1.06526745	     -0.39448927	      7.09047670	     -3.10380531	     13.52019526	    -55.81513402	     -5.74240783	     11.85547142	     10.68761487	      4.74757298	      6.11596064	    -14.63189270	      7.82191279	      3.73991140	     -4.35340744	     -8.61815339	     -2.36991470
      2.95000000	      4.35967389	      5.89602581	    -42.84139491	     -0.14140364	      1.06602817	     -0.39119347	      8.28652659	     -3.47815544	     12.81058171	    -57.14115956	     -4.93455354	     11.50627706	      9.87820181	      5.05879880	      5.75926295	    -14.15665383	      8.00268881	      3.49527369	     -4.52338018	     -8.77035094	     -2.80854736
      2.96000000	      4.53054348	      5.90704312	    -43.22765232	     -0.13424393	      1.06680536	     -0.38784953	      9.40609509	     -3.74635578	     12.08284142	    -58.23289051	     -3.92120893	     10.76612136	      9.06936884	      5.28653543	      5.45502459	    -13.70632502	      8.21070964	      3.18008276	     -4.70575638	     -8.82004841	     -3.21549857
      2.97000000	      4.67030261	      5.86918756	    -43.58421784	     -0.12725002	      1.06759739	     -0.38441900	     10.46190324	     -3.92218477	     11.39674280	    -59.10835698	     -2.81942302	     10.02389191	      8.25905632	      5.45791160	      5.17427517	    -13.26190933	      8.39547999	      2.93032096	     -4.89919140	     -8.81607797	     -3.62346254
      2.98000000	      4.76214129	      5.78728799	    -43.91627403	     -0.12044340	      1.06835513	     -0.38089405	     11.47276340	     -3.99172067	     10.75094033	    -59.77800275	     -1.71108273	      9.24987420	      7.47118959	      5.56200345	      4.90626504	    -12.84044890	      8.58978113	      2.67628419	     -5.08618030	     -8.75354471	     -4.00084830
      2.99000000	      4.82155740	      5.68165713	    -44.23359774	     -0.11384915	      1.06905028	     -0.37728388	     12.44952096	     -3.97769335	     10.15832314	    -60.26085265	     -0.63935640	      8.53552437	      6.71970198	      5.62192930	      4.62246555	    -12.46036054	      8.81155367	      2.43923810	     -5.27010789	     -8.66130421	     -4.36239419
      3.00000000	      4.81053828	      5.52178536	    -44.54009850	     -0.10748036	      1.06967549	     -0.37355387	     13.38926089	     -3.82481435	      9.60751137	    -60.54690900	      0.37808266	      7.78574430	      6.01291371	      5.58304970	      4.32668242	    -12.13060628	      9.07524842	      2.18942706	     -5.43983519	     -8.48890277	     -4.65944414
      3.01000000	      4.75901722	      5.35573852	    -44.85139890	     -0.10134608	      1.07019558	     -0.36972655	     14.31644147	     -3.58236557	      9.14350524	    -60.66396784	      1.34853946	      7.12000304	      5.35573355	      5.50450570	      4.03837635	    -11.83454235	      9.34848810	      1.97937859	     -5.58796584	     -8.29329040	     -4.94751034
      3.02000000	      4.68077097	      5.18885639	    -45.15892833	     -0.09540975	      1.07060022	     -0.36583076	     15.22953346	     -3.29531532	      8.70904312	    -60.62208997	      2.29493687	      6.52023144	      4.75705635	      5.40081906	      3.72608354	    -11.60007108	      9.65878343	      1.80051165	     -5.72196871	     -8.09166419	     -5.20461610
      3.03000000	      4.58440618	      5.03348252	    -45.47133137	     -0.08963081	      1.07088244	     -0.36186754	     16.13240436	     -2.98560676	      8.31035183	    -60.43013935	      3.23124162	      5.97241146	      4.20833662	      5.28921761	      3.40245899	    -11.41219625	      9.98727742	      1.65105821	     -5.83665376	     -7.89218767	     -5.45315362
